<svg xmlns="http://www.w3.org/2000/svg" width="1200" height="420" viewBox="0 0 1200 420" role="img" aria-label="Glass Coast banner"><defs><linearGradient id="water" x1="0" x2="1" y1="0" y2="1"><stop offset="0" stop-color="#0f766e"/><stop offset=".5" stop-color="#155e75"/><stop offset="1" stop-color="#312e81"/></linearGradient></defs><rect width="1200" height="420" fill="url(#water)"/><path d="M0 275 C140 240 280 300 430 255 C620 198 760 282 935 225 C1055 186 1138 203 1200 180 L1200 420 L0 420 Z" fill="#082f49" opacity=".8"/><path d="M160 340 C310 292 430 352 620 305 C790 262 950 310 1200 272 L1200 420 L0 420 L0 382 C62 360 104 356 160 340 Z" fill="#ecfeff" opacity=".22"/><path d="M842 98 L902 238 L782 238 Z" fill="#cffafe" opacity=".78"/></svg>