<svg xmlns="http://www.w3.org/2000/svg" width="1200" height="420" viewBox="0 0 1200 420" role="img" aria-label="Skazka development banner">
  <defs>
    <linearGradient id="sky" x1="0" x2="1" y1="0" y2="1">
      <stop offset="0" stop-color="#1f2937"/>
      <stop offset="0.55" stop-color="#374151"/>
      <stop offset="1" stop-color="#8a6f32"/>
    </linearGradient>
  </defs>
  <rect width="1200" height="420" fill="url(#sky)"/>
  <path d="M0 310 C180 250 280 285 420 235 C600 170 760 230 900 180 C1030 135 1130 170 1200 145 L1200 420 L0 420 Z" fill="#111827"/>
  <path d="M0 345 C200 310 390 340 560 300 C735 260 910 285 1200 250 L1200 420 L0 420 Z" fill="#0f172a"/>
  <path d="M170 90 L230 34 L288 90 L268 90 L268 170 L192 170 L192 90 Z" fill="#d6b25e"/>
  <circle cx="1040" cy="92" r="42" fill="#fde68a" opacity=".72"/>
</svg>
