<svg xmlns="http://www.w3.org/2000/svg" width="1200" height="800" viewBox="0 0 1200 800" role="img" aria-labelledby="title desc"><title id="title">Skazka Roads Map</title><desc id="desc">A base map with roads, water, and landmark areas for Player Site map validation.</desc><defs><linearGradient id="paper" x1="0" x2="1" y1="0" y2="1"><stop offset="0" stop-color="#173244"/><stop offset="0.48" stop-color="#102735"/><stop offset="1" stop-color="#1c3b2f"/></linearGradient><filter id="soft-shadow" x="-20%" y="-20%" width="140%" height="140%"><feDropShadow dx="0" dy="8" stdDeviation="10" flood-color="#061018" flood-opacity="0.35"/></filter></defs><rect width="1200" height="800" fill="url(#paper)"/><path d="M65 642 C180 594 247 532 327 492 C420 445 519 456 609 404 C739 329 813 241 961 214 C1043 199 1104 161 1162 101" fill="none" stroke="#68c5dd" stroke-width="44" stroke-linecap="round" opacity="0.55"/><path d="M65 642 C180 594 247 532 327 492 C420 445 519 456 609 404 C739 329 813 241 961 214 C1043 199 1104 161 1162 101" fill="none" stroke="#d3f5ff" stroke-width="6" stroke-linecap="round" opacity="0.6"/><path d="M128 164 C249 213 341 276 467 311 C617 353 739 331 886 387 C984 425 1069 489 1138 593" fill="none" stroke="#e7c875" stroke-width="18" stroke-linecap="round" stroke-dasharray="24 18" opacity="0.95"/><path d="M219 652 C259 537 323 451 458 389 C575 336 679 288 746 194" fill="none" stroke="#e7c875" stroke-width="12" stroke-linecap="round" opacity="0.9"/><path d="M250 239 C344 228 451 193 573 155 C678 122 823 111 971 132" fill="none" stroke="#88a77b" stroke-width="34" stroke-linecap="round" opacity="0.25"/><path d="M156 435 C273 370 389 365 503 401 C597 431 714 463 831 442 C934 424 1035 366 1125 309" fill="none" stroke="#88a77b" stroke-width="28" stroke-linecap="round" opacity="0.22"/><g filter="url(#soft-shadow)"><ellipse cx="581" cy="454" rx="78" ry="46" fill="#284b3b" stroke="#9fd4a6" stroke-width="4" opacity="0.95"/><ellipse cx="823" cy="255" rx="60" ry="38" fill="#3d4656" stroke="#d6b25e" stroke-width="4" opacity="0.95"/><ellipse cx="265" cy="302" rx="55" ry="36" fill="#3d4656" stroke="#d6b25e" stroke-width="4" opacity="0.95"/></g><g font-family="Georgia, serif" font-weight="700" fill="#f4ead2" text-anchor="middle"><text x="581" y="462" font-size="30">Starobor Gate</text><text x="823" y="263" font-size="24">Archive Ford</text><text x="265" y="310" font-size="24">Old Toll Court</text><text x="315" y="122" font-size="26" fill="#d3f5ff">Thaw Road</text></g><g fill="none" stroke="#f4ead2" stroke-width="2" opacity="0.35"><path d="M40 40 H1160 V760 H40 Z"/><path d="M80 80 H1120 V720 H80 Z"/></g></svg>